# xmcd
#
# Track frame offsets:
# 150
# 35680
# 63637
# 95639
# 134045
# 162365
# 203632
# 247275
# 283949
#
# Disc length: 4356 seconds
#
# Revision: 0
# Processed by: cddbd v1.5PL3 Copyright (c) Steve Scherf et al.
# Submitted via: Audion 3.0.2 (http://www.panic.com/audion/)
#
DISCID=94110209
DTITLE=Robert Dallek - An Unfinished Life: JFK 1917-1963 [CD4]
DYEAR=1900
DGENRE=
TTITLE0=Disc 4: Track 01
TTITLE1=Disc 4: Track 02
TTITLE2=Disc 4: Track 03
TTITLE3=Disc 4: Track 04
TTITLE4=Disc 4: Track 05
TTITLE5=Disc 4: Track 06
TTITLE6=Disc 4: Track 07
TTITLE7=Disc 4: Track 08
TTITLE8=Disc 4: Track 09
EXTD=
EXTT0=
EXTT1=
EXTT2=
EXTT3=
EXTT4=
EXTT5=
EXTT6=
EXTT7=
EXTT8=
PLAYORDER=
